
<svg xmlns="http://www.w3.org/2000/svg" version="1.1" xmlns:xlink="http://www.w3.org/1999/xlink" xmlns:svgjs="http://svgjs.dev/svgjs" width="1500" height="250" viewBox="0 0 1500 250" ><g transform="matrix(1,0,0,1,-0.9090909090909918,-0.6016223524109563)"><svg viewBox="0 0 396 66"  preserveAspectRatio="xMidYMid meet" height="250" width="1500" xmlns="http://www.w3.org/2000/svg" xmlns:xlink="http://www.w3.org/1999/xlink"><g id="tight-bounds" transform="matrix(1,0,0,1,0.2400000000000091,0.15882830103649326)"><svg viewBox="0 0 395.52 65.682343397927" height="65.682343397927" width="395.52"><g><svg viewBox="0 0 395.52 65.682343397927" height="65.682343397927" width="395.52"><g><svg viewBox="0 0 395.52 65.682343397927" height="65.682343397927" width="395.52"><g id="textblocktransform"><svg viewBox="0 0 395.52 65.682343397927" height="65.682343397927" width="395.52" id="textblock"><g><svg viewBox="0 0 395.52 65.682343397927" height="65.682343397927" width="395.52"><g transform="matrix(1,0,0,1,0,0)"><svg width="395.52" viewBox="1.75 -36.4 221.88 36.85" height="65.682343397927" data-palette-color="#ffb3c1 "><g class="wordmark-text-0 " data-fill-palette-color="primary" id="text-0"><path d="M39.4 0L39.4 0Q37.8 0 36.33-0.9 34.85-1.8 33.95-3.75 33.05-5.7 33.05-8.75L33.05-8.75Q33.05-11.25 33.65-14.38 34.25-17.5 35.23-20.65 36.2-23.8 37.35-26.35L37.35-26.35Q33.9-24.05 31.3-20 28.7-15.95 26.8-10.6L26.8-10.6Q27.2-9 27.45-7.6 27.7-6.2 27.7-5.05L27.7-5.05Q27.7-2.85 26.65-1.6 25.6-0.35 23-0.35L23-0.35Q20.7-0.35 19.63-1.38 18.55-2.4 18.55-4.25L18.55-4.25Q18.55-5.45 18.98-7 19.4-8.55 20.2-10.35L20.2-10.35Q19.3-13 18-16.32 16.7-19.65 14.35-23.6L14.35-23.6Q13.65-20.65 12.93-17.73 12.2-14.8 11.73-12.33 11.25-9.85 11.25-8.15L11.25-8.15Q11.25-5.4 12.75-5.4L12.75-5.4 12.85-5.3Q12.85-3.65 12.03-2.48 11.2-1.3 9.93-0.68 8.65-0.05 7.25-0.05L7.25-0.05Q5.9-0.05 4.63-0.7 3.35-1.35 2.55-2.73 1.75-4.1 1.75-6.25L1.75-6.25Q1.75-8.3 2.48-10.73 3.2-13.15 4.3-15.68 5.4-18.2 6.55-20.63 7.7-23.05 8.63-25.18 9.55-27.3 9.85-28.9L9.85-28.9Q8.85-29.6 7.7-29.6L7.7-29.6Q6.75-29.6 5.78-28.98 4.8-28.35 3.95-26.9L3.95-26.9 3.6-27.05Q3.65-29.6 4.7-31.73 5.75-33.85 7.48-35.13 9.2-36.4 11.25-36.4L11.25-36.4Q13.6-36.4 16.1-34.35 18.6-32.3 20.73-27.6 22.85-22.9 24.15-14.9L24.15-14.9Q26.05-21.05 28.25-25.2 30.45-29.35 32.77-31.8 35.1-34.25 37.38-35.33 39.65-36.4 41.7-36.4L41.7-36.4Q44.25-36.4 46.28-35.15 48.3-33.9 49.48-32 50.65-30.1 50.65-28.2L50.65-28.2Q49.4-28.55 48.18-28.7 46.95-28.85 45.8-28.85L45.8-28.85Q44.65-28.85 43.6-28.7L43.6-28.7Q43.15-26.4 42.65-23.58 42.15-20.75 41.78-17.9 41.4-15.05 41.4-12.65L41.4-12.65Q41.4-10.2 41.9-8.65 42.4-7.1 43.65-7.1L43.65-7.1Q44.45-7.1 45.28-7.8 46.1-8.5 46.5-9.95L46.5-9.95 46.85-9.8Q46.85-6.5 45.75-4.33 44.65-2.15 42.93-1.07 41.2 0 39.4 0ZM62.2 0.35L62.2 0.35Q58.45 0.35 56-1.15 53.55-2.65 52.37-5.13 51.2-7.6 51.2-10.4L51.2-10.4Q51.2-13.05 52.17-15.7 53.15-18.35 55.02-20.53 56.9-22.7 59.6-24.03 62.3-25.35 65.8-25.35L65.8-25.35Q69.55-25.35 71.97-23.83 74.4-22.3 75.57-19.8 76.75-17.3 76.75-14.45L76.75-14.45Q76.75-11.85 75.8-9.22 74.85-6.6 72.97-4.42 71.1-2.25 68.4-0.95 65.7 0.35 62.2 0.35ZM63.55-3.9L63.55-3.9Q64.9-3.9 65.8-5.3 66.7-6.7 67.15-8.88 67.6-11.05 67.6-13.3L67.6-13.3Q67.6-15.3 67.22-17.07 66.85-18.85 66.1-19.98 65.35-21.1 64.15-21.1L64.15-21.1Q62.85-21.1 61.92-19.7 61-18.3 60.55-16.15 60.1-14 60.1-11.7L60.1-11.7Q60.1-9.7 60.47-7.93 60.85-6.15 61.6-5.03 62.35-3.9 63.55-3.9ZM87.1 0.2L87.1 0.2Q84.2 0.2 82.5-1.33 80.8-2.85 80.8-6.05L80.8-6.05Q80.8-7.9 81.27-10 81.75-12.1 82.2-13.75L82.2-13.75Q82.65-15.35 82.92-16.55 83.2-17.75 83.2-18.4L83.2-18.4Q83.2-19.2 82.85-19.55 82.5-19.9 82-19.9L82-19.9Q80.8-19.9 80-18.75L80-18.75 79.8-18.95Q79.85-20.65 80.9-22.08 81.95-23.5 83.6-24.35 85.25-25.2 86.95-25.2L86.95-25.2Q88.85-25.2 90.2-24.08 91.55-22.95 91.45-20.55L91.45-20.55Q91.4-19.5 91.07-17.9 90.75-16.3 90.2-14.1L90.2-14.1Q89.85-12.7 89.47-10.93 89.1-9.15 89.1-7.7L89.1-7.7Q89.1-6.6 89.45-5.95 89.8-5.3 90.6-5.3L90.6-5.3Q91.65-5.3 92.92-6.48 94.2-7.65 95.15-10.33 96.1-13 96.25-17.45L96.25-17.45Q96.4-20.85 95.8-22.4L95.8-22.4 95.8-22.65Q96.25-23.35 97.17-24 98.1-24.65 99.25-25.08 100.4-25.5 101.4-25.5L101.4-25.5Q103-25.5 104.12-23.95 105.25-22.4 105.1-18.55L105.1-18.55Q105-14.85 103.77-11.85 102.55-8.85 100.6-6.6 98.65-4.35 96.32-2.85 94-1.35 91.6-0.58 89.2 0.2 87.1 0.2ZM116.79-26.75L116.79-26.75Q114.79-26.75 113.52-27.98 112.24-29.2 112.24-31.05L112.24-31.05Q112.24-33.05 113.74-34.5 115.24-35.95 117.39-35.95L117.39-35.95Q119.39-35.95 120.67-34.7 121.94-33.45 121.94-31.6L121.94-31.6Q121.94-29.6 120.44-28.18 118.94-26.75 116.79-26.75ZM113.29 0.2L113.29 0.2Q111.34 0.2 109.79-1.18 108.24-2.55 108.24-5.6L108.24-5.6Q108.24-7.35 108.72-8.88 109.19-10.4 109.82-11.85 110.44-13.3 110.92-14.68 111.39-16.05 111.39-17.4L111.39-17.4Q111.39-18.6 110.99-19.13 110.59-19.65 110.04-19.65L110.04-19.65Q109.19-19.65 108.39-18.55L108.39-18.55 108.04-18.75Q108.24-20.75 109.32-22.18 110.39-23.6 111.97-24.4 113.54-25.2 115.09-25.2L115.09-25.2Q116.99-25.2 118.39-23.98 119.79-22.75 119.79-20L119.79-20Q119.79-18.35 119.32-16.53 118.84-14.7 118.22-12.9 117.59-11.1 117.12-9.55 116.64-8 116.64-6.9L116.64-6.9Q116.64-5.95 117.02-5.55 117.39-5.15 117.84-5.15L117.84-5.15Q118.29-5.15 118.72-5.43 119.14-5.7 119.34-6.05L119.34-6.05 119.69-5.95Q119.69-4.1 118.72-2.73 117.74-1.35 116.29-0.58 114.84 0.2 113.29 0.2ZM134.39 0.35L134.39 0.35Q130.74 0.35 128.34-1.13 125.94-2.6 124.74-5.03 123.54-7.45 123.54-10.25L123.54-10.25Q123.54-12.9 124.57-15.58 125.59-18.25 127.57-20.45 129.54-22.65 132.37-24 135.19-25.35 138.74-25.35L138.74-25.35Q143.14-25.35 145.17-23.38 147.19-21.4 147.19-18.6L147.19-18.6Q147.19-16.2 145.92-14.18 144.64-12.15 142.54-10.93 140.44-9.7 137.94-9.7L137.94-9.7Q136.64-9.7 135.29-10.1 133.94-10.5 132.64-11.35L132.64-11.35Q132.89-8.25 134.44-6.85 135.99-5.45 138.14-5.45L138.14-5.45Q139.64-5.45 141.14-6.03 142.64-6.6 143.92-7.53 145.19-8.45 145.89-9.5L145.89-9.5 146.24-9.25Q146.24-6.65 145.17-4.83 144.09-3 142.34-1.85 140.59-0.7 138.52-0.18 136.44 0.35 134.39 0.35ZM135.54-13.15L135.54-13.15Q137.14-13.15 138.14-14.08 139.14-15 139.64-16.25 140.14-17.5 140.14-18.45L140.14-18.45Q140.14-19.6 139.49-20.38 138.84-21.15 137.69-21.15L137.69-21.15Q136.79-21.15 135.72-20.5 134.64-19.85 133.79-18.28 132.94-16.7 132.69-13.9L132.69-13.9Q134.29-13.15 135.54-13.15ZM160.44 0.35L160.44 0.35Q156.79 0.35 154.39-1.13 151.99-2.6 150.79-5.03 149.59-7.45 149.59-10.25L149.59-10.25Q149.59-12.9 150.61-15.58 151.64-18.25 153.61-20.45 155.59-22.65 158.41-24 161.24-25.35 164.79-25.35L164.79-25.35Q169.19-25.35 171.21-23.38 173.24-21.4 173.24-18.6L173.24-18.6Q173.24-16.2 171.96-14.18 170.69-12.15 168.59-10.93 166.49-9.7 163.99-9.7L163.99-9.7Q162.69-9.7 161.34-10.1 159.99-10.5 158.69-11.35L158.69-11.35Q158.94-8.25 160.49-6.85 162.04-5.45 164.19-5.45L164.19-5.45Q165.69-5.45 167.19-6.03 168.69-6.6 169.96-7.53 171.24-8.45 171.94-9.5L171.94-9.5 172.29-9.25Q172.29-6.65 171.21-4.83 170.14-3 168.39-1.85 166.64-0.7 164.56-0.18 162.49 0.35 160.44 0.35ZM161.59-13.15L161.59-13.15Q163.19-13.15 164.19-14.08 165.19-15 165.69-16.25 166.19-17.5 166.19-18.45L166.19-18.45Q166.19-19.6 165.54-20.38 164.89-21.15 163.74-21.15L163.74-21.15Q162.84-21.15 161.76-20.5 160.69-19.85 159.84-18.28 158.99-16.7 158.74-13.9L158.74-13.9Q160.34-13.15 161.59-13.15ZM186.49 0.35L186.49 0.35Q182.84 0.35 180.44-1.13 178.04-2.6 176.84-5.03 175.64-7.45 175.64-10.25L175.64-10.25Q175.64-12.9 176.66-15.58 177.69-18.25 179.66-20.45 181.64-22.65 184.46-24 187.29-25.35 190.84-25.35L190.84-25.35Q195.24-25.35 197.26-23.38 199.29-21.4 199.29-18.6L199.29-18.6Q199.29-16.2 198.01-14.18 196.74-12.15 194.64-10.93 192.54-9.7 190.04-9.7L190.04-9.7Q188.74-9.7 187.39-10.1 186.04-10.5 184.74-11.35L184.74-11.35Q184.99-8.25 186.54-6.85 188.09-5.45 190.24-5.45L190.24-5.45Q191.74-5.45 193.24-6.03 194.74-6.6 196.01-7.53 197.29-8.45 197.99-9.5L197.99-9.5 198.34-9.25Q198.34-6.65 197.26-4.83 196.19-3 194.44-1.85 192.69-0.7 190.61-0.18 188.54 0.35 186.49 0.35ZM187.64-13.15L187.64-13.15Q189.24-13.15 190.24-14.08 191.24-15 191.74-16.25 192.24-17.5 192.24-18.45L192.24-18.45Q192.24-19.6 191.59-20.38 190.94-21.15 189.79-21.15L189.79-21.15Q188.89-21.15 187.81-20.5 186.74-19.85 185.89-18.28 185.04-16.7 184.79-13.9L184.79-13.9Q186.39-13.15 187.64-13.15ZM210.28 0.45L210.28 0.45Q207.18 0.45 205.13-0.4 203.08-1.25 202.08-2.58 201.08-3.9 201.08-5.25L201.08-5.25Q201.08-7.15 202.78-8.63 204.48-10.1 207.38-10.1L207.38-10.1Q207.38-7.55 208.03-6.03 208.68-4.5 209.71-3.85 210.73-3.2 211.68-3.2L211.68-3.2Q212.83-3.2 213.61-3.88 214.38-4.55 214.38-5.55L214.38-5.55Q214.38-6.95 212.93-8 211.48-9.05 209.18-10.35L209.18-10.35Q208.03-11.05 206.68-11.98 205.33-12.9 204.38-14.23 203.43-15.55 203.43-17.4L203.43-17.4Q203.43-19.35 204.56-20.85 205.68-22.35 207.53-23.38 209.38-24.4 211.53-24.93 213.68-25.45 215.73-25.45L215.73-25.45Q219.58-25.45 221.53-23.9 223.48-22.35 223.48-20.6L223.48-20.6Q223.48-19.1 221.98-17.9 220.48-16.7 217.38-16.7L217.38-16.7Q217.43-19.25 216.33-20.43 215.23-21.6 213.98-21.6L213.98-21.6Q213.08-21.6 212.48-21.05 211.88-20.5 211.88-19.45L211.88-19.45Q211.88-18.25 212.66-17.38 213.43-16.5 214.61-15.83 215.78-15.15 217.03-14.55L217.03-14.55Q218.73-13.75 220.23-12.85 221.73-11.95 222.68-10.8 223.63-9.65 223.63-8L223.63-8Q223.63-5.75 221.81-3.83 219.98-1.9 216.93-0.73 213.88 0.45 210.28 0.45Z" fill="#ffb3c1" data-fill-palette-color="primary"></path></g></svg></g></svg></g></svg></g></svg></g></svg></g><defs></defs></svg><rect width="395.52" height="65.682343397927" fill="none" stroke="none" visibility="hidden"></rect></g></svg></g></svg>